<svg width="704" height="181" viewBox="0 0 704 181" fill="none" xmlns="http://www.w3.org/2000/svg">
<g clip-path="url(#clip0_2220_44)">
<path fill-rule="evenodd" clip-rule="evenodd" d="M108.92 7.59441L173.331 71.966C183.463 82.0919 183.463 98.5464 173.331 108.672L108.92 173.406C98.788 183.531 82.3233 183.531 72.1912 173.406L7.59907 108.853C-2.53303 98.7273 -2.53303 82.2727 7.59907 72.1469L72.1912 7.59441C82.3233 -2.53147 98.788 -2.53147 108.92 7.59441ZM86.3038 23.8681L86.1228 24.049L24.2447 85.8891C21.7116 88.4206 21.7116 92.2178 24.0637 94.7493L24.2447 94.9301L85.9419 156.589C88.4749 159.121 92.2745 159.121 94.8075 156.77L94.9884 156.589L156.686 94.9301C159.219 92.3986 159.219 88.2398 156.686 85.7083L95.1694 24.2298C92.8173 21.6983 88.8368 21.6983 86.3038 23.8681ZM91.7317 51.1718L129.908 89.3247C130.632 90.048 130.632 90.952 129.908 91.6753L91.7317 129.828C91.008 130.551 90.1033 130.551 89.3796 129.828L51.2033 91.6753C50.4796 90.952 50.4796 90.048 51.2033 89.3247L89.3796 51.1718C90.1033 50.4485 91.008 50.4485 91.7317 51.1718Z" fill="#2F1F49"/>
<path d="M635.789 109.034C635.789 88.7822 646.464 76.8481 662.024 76.8481C674.147 76.8481 681.565 84.985 684.46 95.8342L703.638 85.3466C698.391 69.4346 683.555 57.3197 662.024 57.3197C633.618 57.3197 612.992 78.4755 612.992 109.215C612.992 139.954 633.437 161.11 662.024 161.11C683.736 161.11 698.934 148.453 704 132.179L684.46 122.234C681.565 133.264 674.147 141.22 662.024 141.22C646.464 141.039 635.789 129.286 635.789 109.034Z" fill="#2F1F49"/>
<path d="M264.701 22.4216L212.955 158.759H237.019L248.598 127.658H307.582L319.342 158.759H343.768L292.022 22.4216H264.701ZM277.909 49.3636L299.621 106.322H256.74L277.909 49.3636Z" fill="#2F1F49"/>
<path d="M433.69 139.412H381.04L433.148 76.3057V58.9471H353.176V78.2947H406.008L352.453 141.581V158.578H433.69V139.412Z" fill="#2F1F49"/>
<path d="M456.487 133.625C456.487 153.877 466.8 159.844 485.798 159.844C491.768 159.844 497.377 159.302 501.539 158.578V139.412C498.101 139.773 496.111 139.954 492.311 139.954C484.169 139.954 479.103 139.05 479.103 130.009V78.4755H499.91V59.1279H479.103V29.8352H456.668V59.1279H442.736V78.4755H456.668V133.625H456.487Z" fill="#2F1F49"/>
<path d="M558.894 160.748C578.796 160.748 594.537 150.261 601.593 132.902L582.053 125.489C578.977 135.795 570.111 141.401 558.894 141.401C544.238 141.401 533.925 130.913 532.297 113.916H602.136V106.322C602.136 79.018 586.757 57.1389 557.808 57.1389C530.126 57.1389 510.404 79.7413 510.404 109.034C510.404 139.773 530.488 160.748 558.894 160.748ZM557.808 76.3057C572.282 76.3057 579.158 85.7083 579.339 96.7383H533.563C536.82 83.3577 546.048 76.3057 557.808 76.3057Z" fill="#2F1F49"/>
</g>
<defs>
<clipPath id="clip0_2220_44">
<rect width="704" height="181" fill="white"/>
</clipPath>
</defs>
</svg>
